<!DOCTYPE svg PUBLIC "-//W3C//DTD SVG 20010904//EN" "http://www.w3.org/TR/2001/REC-SVG-20010904/DTD/svg10.dtd">
<svg version="1.0" xmlns="http://www.w3.org/2000/svg" width="1200px" height="675px" viewBox="0 0 12000 6750" preserveAspectRatio="xMidYMid meet">
<g id="layer101" fill="#0e0804" stroke="none">
<path d="M5567 6693 c5 -57 3 -60 -57 -161 -60 -98 -62 -105 -56 -151 l6 -48 -37 -6 c-21 -3 -94 -20 -163 -37 -116 -28 -143 -31 -368 -37 l-243 -6 -23 -31 c-54 -74 -69 -175 -41 -271 15 -49 35 -95 46 -105 3 -3 23 -34 44 -70 22 -36 62 -96 90 -135 58 -79 112 -163 139 -215 36 -68 44 -86 77 -160 160 -354 247 -456 439 -509 108 -30 253 -98 276 -129 7 -10 6 -39 -4 -101 -16 -102 -9 -161 23 -199 l24 -29 -42 -51 c-23 -28 -50 -72 -59 -99 -16 -45 -21 -50 -78 -72 -110 -44 -161 -122 -168 -257 -2 -50 1 -90 7 -103 7 -11 34 -32 62 -46 27 -14 52 -32 55 -40 3 -8 2 -49 -3 -92 -8 -77 2 -202 24 -283 34 -122 151 -257 274 -313 83 -38 106 -44 240 -56 97 -9 230 5 309 32 45 16 120 58 120 68 0 4 25 32 56 61 67 62 112 130 144 213 25 67 31 197 17 337 l-8 76 44 17 c55 21 67 45 67 132 0 109 -10 128 -132 249 -60 59 -118 125 -129 146 -10 20 -29 44 -41 52 l-23 16 25 23 c35 30 50 69 50 125 -1 44 -19 135 -35 174 -5 12 3 23 32 41 55 34 213 107 233 107 5 0 18 4 28 9 9 6 51 26 92 45 41 19 98 54 126 78 49 41 134 154 134 177 0 6 3 11 8 11 4 0 13 14 21 31 32 74 182 349 221 409 24 36 72 108 106 161 116 174 154 283 154 441 0 87 -9 108 -61 143 -40 27 -51 30 -129 29 -47 -1 -102 -7 -123 -13 -21 -7 -80 -13 -130 -13 -91 0 -94 1 -217 58 -89 42 -137 59 -167 59 -43 0 -43 0 -43 37 0 21 -13 62 -29 95 -48 95 -61 133 -61 177 0 23 5 47 12 54 9 9 -118 12 -574 12 l-586 0 5 -57z"/>
</g>
<g id="layer102" fill="#653d32" stroke="none">
<path d="M5970 4417 c-124 -43 -224 -129 -271 -234 -23 -49 -69 -226 -69 -263 0 -14 -4 -31 -9 -38 -16 -26 -20 13 -10 88 6 40 8 74 6 76 -22 22 -142 -69 -171 -130 -19 -40 -22 -162 -4 -201 8 -19 19 -25 42 -25 39 0 76 25 76 51 0 20 0 20 -26 0 -15 -12 -35 -21 -45 -21 -17 0 -19 9 -19 96 0 99 8 127 44 156 21 18 65 24 67 11 6 -87 5 -221 -2 -241 -6 -15 -17 -63 -24 -107 -42 -234 16 -448 159 -590 53 -52 134 -100 221 -132 69 -24 298 -24 368 0 106 37 168 87 218 174 58 101 69 157 69 358 0 190 -12 285 -64 515 -65 292 -69 300 -196 385 -127 85 -252 110 -360 72z m235 -106 c-14 -12 -119 -21 -135 -11 -10 6 -8 9 6 13 34 9 138 7 129 -2z m21 -261 c-26 -40 -46 -51 -46 -27 0 15 28 58 50 74 26 20 24 -5 -4 -47z m-302 -132 c105 -30 75 -43 -102 -47 -107 -2 -128 4 -99 26 39 32 131 41 201 21z m593 -30 c16 -17 12 -18 -86 -18 -99 0 -141 9 -141 31 0 7 36 10 105 7 83 -2 108 -7 122 -20z m-684 -195 c90 -4 127 -10 127 -18 0 -42 -175 -53 -247 -17 -46 24 -69 59 -31 48 13 -4 80 -9 151 -13z m480 -5 c13 -7 61 -13 117 -13 75 0 95 -3 95 -14 0 -34 -138 -53 -198 -27 -47 20 -71 41 -63 54 9 15 22 15 49 0z"/>
<path d="M6630 4014 c0 -5 21 -27 48 -50 l47 -41 0 -106 c-1 -59 2 -107 6 -107 4 0 17 12 28 26 42 53 12 211 -48 253 -31 22 -81 37 -81 25z"/>
</g>
<g id="layer103" fill="#ab2f39" stroke="none">
<path d="M6041 6543 c-30 -8 -68 -24 -85 -36 -57 -41 -81 -49 -178 -59 -125 -12 -153 -9 -153 17 0 17 -8 20 -47 23 -32 2 -56 -2 -74 -14 -24 -16 -26 -22 -21 -67 4 -26 11 -63 16 -80 6 -18 13 -54 17 -81 l6 -49 122 5 c68 3 132 11 144 17 27 15 182 13 256 -3 44 -9 62 -18 69 -34 12 -26 24 -27 51 -7 11 8 30 15 42 15 22 0 22 -1 -6 -28 -29 -30 -60 -114 -60 -166 0 -61 -19 -10 -27 73 -6 59 -13 87 -24 94 -17 10 -136 2 -157 -12 -8 -5 -16 -36 -19 -72 -10 -116 -11 -125 -22 -181 -16 -74 -30 -86 -65 -53 l-28 26 34 22 c42 29 57 72 57 168 1 86 -6 93 -75 82 -43 -7 -51 -17 -57 -73 -2 -25 -12 -71 -21 -103 -22 -78 -21 -84 14 -92 20 -4 36 -17 46 -38 37 -72 85 -102 149 -93 23 4 51 13 61 22 17 13 16 14 -21 8 -22 -3 -49 -8 -60 -11 -17 -5 -18 -4 -7 9 7 9 46 21 90 28 108 17 112 20 112 85 0 30 4 55 8 55 10 0 32 -68 32 -97 0 -31 18 -40 100 -47 83 -8 140 -23 140 -37 0 -12 -9 -11 -66 6 -55 17 -88 19 -80 6 6 -10 72 -27 132 -35 53 -7 79 13 95 74 12 44 11 47 -18 79 -38 41 -45 70 -45 187 l0 92 -61 7 c-34 3 -75 9 -92 13 l-30 6 25 7 c14 4 43 8 65 9 22 1 62 7 89 13 l50 12 -55 26 c-145 70 -282 99 -473 99 -142 0 -150 7 -61 49 127 60 425 -14 568 -140 25 -21 54 -39 66 -39 34 0 132 52 141 74 18 50 40 122 40 133 0 17 -31 32 -114 54 -39 11 -80 24 -91 28 -37 17 -221 41 -305 40 -47 0 -109 -7 -139 -16z"/>
<path d="M6442 6057 c2 -99 6 -120 24 -144 12 -15 31 -29 43 -31 17 -3 21 -8 15 -20 -32 -77 -3 -75 52 3 30 44 35 60 31 87 -4 18 -11 63 -18 101 -11 67 -11 67 -57 87 -25 11 -57 23 -70 27 l-24 6 4 -116z"/>
<path d="M7000 6160 c-107 -17 -226 -30 -272 -30 -60 0 -72 -18 -63 -98 13 -121 13 -122 43 -116 44 8 207 -12 362 -45 80 -17 159 -31 176 -31 43 0 98 25 122 54 24 31 45 126 40 186 l-3 44 -58 18 c-68 21 -266 31 -347 18z"/>
<path d="M4975 6142 l-50 -17 -3 -60 c-4 -77 13 -143 45 -177 44 -46 127 -47 368 -2 50 9 139 19 198 23 73 5 111 11 116 20 12 18 34 159 27 169 -3 5 -29 12 -58 16 -29 3 -100 13 -158 22 -58 8 -179 17 -270 19 -137 4 -173 2 -215 -13z"/>
<path d="M4822 5904 c-6 -11 -13 -35 -17 -54 l-6 -35 60 -18 c105 -31 174 -9 85 28 -26 10 -60 36 -78 58 -31 37 -34 39 -44 21z"/>
<path d="M7422 5861 c-35 -30 -128 -57 -161 -46 -28 9 -37 -14 -14 -37 67 -67 233 -12 233 78 0 42 -14 43 -58 5z"/>
<path d="M6020 4858 c-30 -11 -106 -54 -167 -95 l-113 -74 0 -72 c-1 -40 -7 -90 -15 -112 -8 -22 -15 -41 -15 -42 0 -2 30 8 68 21 93 32 155 46 201 46 35 0 39 3 45 33 18 94 87 257 112 264 13 4 24 -19 69 -154 20 -59 45 -115 56 -125 10 -9 38 -19 61 -23 34 -6 44 -4 55 11 26 35 15 69 -42 133 -65 73 -77 94 -84 145 -5 34 -11 41 -41 52 -52 19 -128 16 -190 -8z"/>
</g>
<g id="layer104" fill="#758f7b" stroke="none">
<path d="M6041 6543 c-30 -8 -68 -24 -85 -36 -57 -41 -81 -49 -178 -59 -125 -12 -153 -9 -153 17 0 17 -8 20 -47 23 -32 2 -56 -2 -74 -14 -24 -16 -26 -22 -21 -67 4 -26 11 -63 16 -80 6 -18 13 -54 17 -81 l6 -49 122 5 c68 3 132 11 144 17 27 15 182 13 256 -3 44 -9 62 -18 69 -34 12 -26 24 -27 51 -7 11 8 30 15 42 15 22 0 22 -1 -6 -28 -29 -30 -60 -114 -60 -166 0 -61 -19 -10 -27 73 -6 59 -13 87 -24 94 -17 10 -136 2 -157 -12 -8 -5 -16 -36 -19 -72 -10 -117 -12 -134 -23 -184 -16 -71 -26 -79 -62 -54 -36 26 -44 20 -25 -18 17 -31 40 -54 76 -73 28 -14 100 -6 127 16 17 13 16 14 -21 8 -22 -3 -49 -8 -60 -11 -17 -5 -18 -4 -7 9 7 9 46 21 90 28 108 17 112 20 112 85 0 30 4 55 8 55 10 0 32 -68 32 -97 0 -31 18 -40 100 -47 83 -8 140 -23 140 -37 0 -12 -9 -11 -66 6 -55 17 -88 19 -80 6 6 -10 72 -27 132 -35 53 -7 79 13 95 74 12 44 11 47 -18 79 -38 41 -45 70 -45 187 l0 92 -61 7 c-34 3 -75 9 -92 13 l-30 6 25 7 c14 4 43 8 65 9 22 1 62 7 89 13 l50 12 -55 26 c-145 70 -282 99 -473 99 -142 0 -150 7 -61 49 127 60 425 -14 568 -140 25 -21 54 -39 66 -39 34 0 132 52 141 74 18 50 40 122 40 133 0 17 -31 32 -114 54 -39 11 -80 24 -91 28 -37 17 -221 41 -305 40 -47 0 -109 -7 -139 -16z"/>
<path d="M5970 4417 c-124 -43 -224 -129 -271 -234 -23 -49 -69 -226 -69 -263 0 -14 -4 -31 -9 -38 -16 -26 -20 13 -10 88 6 40 8 74 6 76 -22 22 -142 -69 -171 -130 -19 -40 -22 -162 -4 -201 8 -19 19 -25 42 -25 39 0 76 25 76 51 0 20 0 20 -26 0 -15 -12 -35 -21 -45 -21 -17 0 -19 9 -19 96 0 99 8 127 44 156 21 18 65 24 67 11 6 -87 5 -221 -2 -241 -6 -15 -17 -63 -24 -107 -42 -234 16 -448 159 -590 92 -90 254 -155 393 -155 77 0 199 23 257 48 92 41 169 139 207 265 27 87 26 376 0 532 -21 121 -59 296 -91 420 -24 92 -48 122 -150 190 -127 85 -252 110 -360 72z m226 -112 c-22 -17 -167 -22 -150 -6 14 13 42 19 109 20 55 0 58 -1 41 -14z m64 -198 c0 -19 -58 -97 -71 -97 -18 0 0 52 29 83 28 30 42 34 42 14z m-336 -189 c105 -30 75 -43 -102 -47 -107 -2 -128 4 -99 26 39 32 131 41 201 21z m593 -30 c16 -17 12 -18 -86 -18 -99 0 -141 9 -141 31 0 7 36 10 105 7 83 -2 108 -7 122 -20z m-684 -195 c90 -4 127 -10 127 -18 0 -42 -175 -53 -247 -17 -46 24 -69 59 -31 48 13 -4 80 -9 151 -13z m480 -5 c13 -7 61 -13 117 -13 75 0 95 -3 95 -14 0 -34 -138 -53 -198 -27 -47 20 -71 41 -63 54 9 15 22 15 49 0z"/>
<path d="M6630 4014 c0 -5 21 -27 48 -50 l47 -41 0 -106 c-1 -59 2 -107 6 -107 4 0 17 12 29 28 19 23 21 35 16 90 -8 79 -31 137 -65 161 -31 22 -81 37 -81 25z"/>
</g>
<g id="layer105" fill="#d08e3c" stroke="none">
<path d="M6041 6543 c-30 -8 -68 -24 -85 -36 -57 -41 -81 -49 -178 -59 -125 -12 -153 -9 -153 17 0 17 -8 20 -47 23 -32 2 -56 -2 -74 -14 -24 -16 -26 -22 -21 -67 4 -26 11 -63 16 -80 6 -18 13 -54 17 -81 l6 -49 122 5 c68 3 132 11 144 17 27 15 182 13 256 -3 44 -9 62 -18 69 -34 12 -26 24 -27 51 -7 11 8 30 15 42 15 22 0 22 -1 -6 -28 -29 -30 -60 -114 -60 -166 0 -62 -19 -9 -26 72 -4 50 -12 86 -21 93 -13 11 -123 6 -157 -7 -14 -5 -34 -100 -23 -110 3 -3 16 2 30 11 24 15 26 15 64 -17 21 -18 40 -34 43 -36 3 -2 -6 -12 -19 -23 -25 -21 -71 -25 -101 -9 -21 11 -22 10 -40 -75 -16 -71 -26 -79 -62 -54 -36 26 -44 20 -25 -18 17 -31 40 -54 76 -73 28 -14 100 -6 127 16 17 13 16 14 -21 8 -22 -3 -49 -8 -60 -11 -17 -5 -18 -4 -7 9 7 9 46 21 90 28 108 17 112 20 112 85 0 30 4 55 8 55 10 0 32 -68 32 -97 0 -31 18 -40 100 -47 83 -8 140 -23 140 -37 0 -12 -9 -11 -66 6 -55 17 -88 19 -80 6 6 -10 72 -27 132 -35 53 -7 79 13 95 74 12 44 11 46 -20 80 -17 19 -35 48 -39 65 -11 40 -39 44 -67 10 -21 -27 -22 -27 -47 -11 -49 32 -47 61 8 91 34 18 36 18 45 2 15 -26 49 -22 49 7 0 13 3 43 6 68 l6 45 -63 7 c-35 4 -77 10 -94 14 l-30 6 25 7 c14 4 43 8 65 9 22 1 62 7 89 13 l50 12 -55 26 c-145 70 -282 99 -473 99 -142 0 -150 7 -61 49 127 60 425 -14 568 -140 25 -21 54 -39 66 -39 34 0 132 52 141 74 18 50 40 122 40 133 0 17 -31 32 -114 54 -39 11 -80 24 -91 28 -37 17 -221 41 -305 40 -47 0 -109 -7 -139 -16z"/>
<path d="M6083 5790 c-38 -15 -33 -70 27 -285 30 -111 44 -122 73 -63 29 60 60 279 43 306 -10 17 -81 52 -103 51 -10 0 -28 -4 -40 -9z"/>
</g>
<g id="layer106" fill="#edd1b5" stroke="none">
<path d="M6201 6163 c-30 -31 -61 -114 -61 -167 0 -62 -19 -9 -26 72 -4 50 -12 86 -21 93 -13 11 -123 6 -157 -7 -14 -5 -34 -100 -23 -110 3 -3 16 2 30 11 24 15 26 15 64 -17 21 -18 40 -34 43 -36 3 -2 -6 -12 -19 -23 -25 -21 -71 -25 -101 -9 -21 11 -22 10 -40 -75 -16 -71 -26 -79 -62 -54 -36 26 -44 20 -25 -18 17 -31 40 -54 76 -73 28 -14 100 -6 127 16 17 13 16 14 -21 8 -22 -3 -49 -8 -60 -11 -17 -5 -18 -4 -7 9 7 9 46 21 90 28 108 17 112 20 112 85 0 30 4 55 8 55 10 0 32 -68 32 -97 0 -31 18 -40 100 -47 83 -8 140 -23 140 -37 0 -12 -9 -11 -66 6 -55 17 -88 19 -80 6 6 -10 72 -27 132 -35 53 -7 79 13 95 74 12 44 11 46 -20 80 -17 19 -35 48 -39 65 -11 40 -39 44 -67 10 -21 -27 -22 -27 -47 -11 -49 32 -47 61 8 91 34 18 36 18 45 2 15 -26 49 -22 49 7 0 13 3 43 6 68 l6 45 -58 7 c-33 4 -76 9 -96 13 -32 5 -41 1 -67 -24z"/>
<path d="M6112 4710 c-26 -11 -46 -54 -57 -120 l-7 -45 23 22 c13 12 45 27 72 34 53 15 56 23 27 79 -22 43 -23 43 -58 30z"/>
<path d="M5970 4417 c-124 -43 -224 -129 -271 -234 -23 -49 -69 -226 -69 -263 0 -14 -4 -31 -9 -38 -16 -26 -20 13 -10 88 6 40 8 74 6 76 -22 22 -142 -69 -171 -130 -19 -40 -22 -162 -4 -201 8 -19 19 -25 42 -25 39 0 76 25 76 51 0 20 0 20 -26 0 -15 -12 -35 -21 -45 -21 -17 0 -19 9 -19 96 0 99 8 127 44 156 21 18 65 24 67 11 6 -87 5 -221 -2 -241 -6 -15 -17 -63 -24 -107 -40 -224 10 -425 143 -575 65 -74 192 -140 300 -156 44 -7 45 -6 38 17 -12 40 -26 158 -34 279 l-7 115 -70 5 c-62 4 -70 7 -67 24 8 47 145 194 233 250 30 18 30 18 69 -9 49 -34 172 -159 207 -210 30 -44 22 -55 -42 -55 -92 -1 -88 6 -105 -175 -6 -66 -15 -145 -19 -175 -5 -30 -5 -59 -1 -64 12 -12 114 9 169 36 94 46 164 136 202 261 27 87 26 376 0 532 -21 121 -59 296 -91 420 -24 92 -48 122 -150 190 -127 85 -252 110 -360 72z m240 -106 c0 -13 -38 -21 -107 -21 -63 0 -87 15 -35 23 53 8 142 7 142 -2z m50 -204 c0 -18 -57 -97 -70 -97 -20 0 -9 40 21 75 33 37 49 44 49 22z m-336 -189 c105 -30 75 -43 -102 -47 -107 -2 -128 4 -99 26 39 32 131 41 201 21z m593 -30 c16 -17 12 -18 -86 -18 -99 0 -141 9 -141 31 0 7 36 10 105 7 83 -2 108 -7 122 -20z m-684 -195 c90 -4 127 -10 127 -18 0 -42 -175 -53 -247 -17 -46 24 -69 59 -31 48 13 -4 80 -9 151 -13z m480 -5 c13 -7 61 -13 117 -13 75 0 95 -3 95 -14 0 -34 -138 -53 -198 -27 -47 20 -71 41 -63 54 9 15 22 15 49 0z"/>
<path d="M6630 4014 c0 -5 21 -27 48 -50 l47 -41 0 -106 c-1 -59 2 -107 6 -107 4 0 17 12 29 27 19 25 21 35 15 93 -9 83 -30 135 -64 159 -31 22 -81 37 -81 25z"/>
</g>


</svg>